<svg xmlns="http://www.w3.org/2000/svg" xmlns:xlink="http://www.w3.org/1999/xlink" viewBox="0 0 120.66 20.51"><defs><style>.cls-1{fill:#fff;}.cls-2{fill:#fff;}.cls-3{mask:url(#mask);}.cls-4{mask:url(#mask-2);}</style><mask id="mask" x="48.65" y="0" width="9.25" height="20.46" maskUnits="userSpaceOnUse"><g id="mask-22"><polygon id="path-21" class="cls-1" points="57.9 0 48.65 0 48.65 20.46 57.9 20.46 57.9 0"/></g></mask><mask id="mask-2" x="110.8" y="5.59" width="9.85" height="14.63" maskUnits="userSpaceOnUse"><g id="mask-24"><polygon id="path-23" class="cls-1" points="120.66 20.23 120.66 5.59 110.8 5.59 110.8 20.23 120.66 20.23"/></g></mask></defs><title>codeprep_logo</title><g id="レイヤー_2" data-name="レイヤー 2"><g id="レイヤー_1-2" data-name="レイヤー 1"><g id="header"><g id="asset_logo" data-name="asset/logo"><g id="Page-1"><path id="Fill-1" class="cls-2" d="M15.79,4.39H5A1.19,1.19,0,1,1,5,2H15.79a1.19,1.19,0,1,1,0,2.39"/><path id="Fill-6" class="cls-2" d="M8.44,9.74H1.19a1.19,1.19,0,1,1,0-2.39H8.44a1.19,1.19,0,0,1,0,2.39"/><path id="Fill-11" class="cls-2" d="M8.44,15.09H1.19a1.19,1.19,0,1,1,0-2.39H8.44a1.19,1.19,0,0,1,0,2.39"/><path id="Fill-16" class="cls-2" d="M15.6,20.45H4.82a1.19,1.19,0,0,1,0-2.39H15.6a1.19,1.19,0,0,1,0,2.39"/><path id="Fill-21" class="cls-2" d="M32.28,17.24a.58.58,0,0,0-.87.27,3.09,3.09,0,0,1-2.88,1.7h-.1a3.28,3.28,0,0,1-3.29-3.29V10a3.15,3.15,0,0,1,1-2.32,3.21,3.21,0,0,1,2.33-.95h.1a3.09,3.09,0,0,1,2.88,1.7.56.56,0,0,0,.85.27.59.59,0,0,0,.27-.88,4.3,4.3,0,0,0-4-2.39h-.1a4.42,4.42,0,0,0-3.23,1.34A4.42,4.42,0,0,0,23.83,10v5.89a4.59,4.59,0,0,0,4.57,4.57h.1a4.3,4.3,0,0,0,4-2.39.58.58,0,0,0-.25-.88"/><path id="Fill-26" class="cls-2" d="M43.93,10v5.88a3.2,3.2,0,0,1-1,2.33,3.16,3.16,0,0,1-2.32,1h-.1a3.16,3.16,0,0,1-2.32-1,3.2,3.2,0,0,1-1-2.33V10a3.25,3.25,0,0,1,3.27-3.27h.1A3.25,3.25,0,0,1,43.93,10M40.66,5.48h-.1A4.58,4.58,0,0,0,36,10v5.89a4.58,4.58,0,0,0,4.57,4.57h.1a4.58,4.58,0,0,0,4.57-4.57V10a4.58,4.58,0,0,0-4.57-4.57"/><path id="Fill-31" class="cls-2" d="M69.27,10v2.27s0,0-.07,0H62.66s0,0,0,0V10a3.26,3.26,0,0,1,3.27-3.27H66A3.26,3.26,0,0,1,69.27,10M66,5.48h-.1A4.58,4.58,0,0,0,61.32,10v5.89a4.58,4.58,0,0,0,4.57,4.57H66a4.3,4.3,0,0,0,4-2.39.64.64,0,0,0-1.12-.61A3.09,3.09,0,0,1,66,19.21H65.9a3.28,3.28,0,0,1-3.29-3.28V13.7s0,0,0,0h7.28a.57.57,0,0,0,.64-.64V10A4.59,4.59,0,0,0,66,5.48"/><path id="Fill-36" class="cls-2" d="M76.79,12.43H80a2.23,2.23,0,0,0,1.8-.77A2.54,2.54,0,0,0,82.36,10a2.94,2.94,0,0,0-.23-1.24,1.82,1.82,0,0,0-.68-.72,2.63,2.63,0,0,0-1.54-.41H76.79ZM74.65,5.59h5.14a8,8,0,0,1,1.62.16A4.31,4.31,0,0,1,83,6.62,3.5,3.5,0,0,1,84.07,8a4.66,4.66,0,0,1,.44,2.09,4.52,4.52,0,0,1-1.11,3,4.14,4.14,0,0,1-3.33,1.44H76.79v5.71H74.65Z"/><path id="Fill-41" class="cls-2" d="M89,12h3.26a2.26,2.26,0,0,0,2.41-2.33A2,2,0,0,0,93.93,8a2.41,2.41,0,0,0-1.58-.45H89ZM86.83,5.59h5.54a4.27,4.27,0,0,1,2.89,1,4,4,0,0,1,1.41,3.12,4.07,4.07,0,0,1-2.74,4.06l3.28,6.49H94.66L91.73,14H89v6.25H86.83Z"/><polygon id="Fill-46" class="cls-2" points="99.37 5.59 108.42 5.59 108.42 7.68 101.52 7.68 101.52 11.87 107.41 11.87 107.41 13.83 101.52 13.83 101.52 18.14 108.42 18.14 108.42 20.23 99.37 20.23 99.37 5.59"/><g id="Group-57"><g id="Group-53"><g class="cls-3"><path id="Fill-51" class="cls-2" d="M56.6,10.13v5.73a3.21,3.21,0,0,1-1,2.34,3.15,3.15,0,0,1-2.32,1h-.1a3.16,3.16,0,0,1-2.32-1,3.21,3.21,0,0,1-1-2.34V10.13a3.28,3.28,0,0,1,3.27-3.27h.1a3.28,3.28,0,0,1,3.27,3.27M57.25,0a.58.58,0,0,0-.65.64V7a4.43,4.43,0,0,0-3.29-1.41h-.1A4.4,4.4,0,0,0,50,6.9a4.44,4.44,0,0,0-1.34,3.24v5.74a4.59,4.59,0,0,0,4.57,4.58h.1a4.59,4.59,0,0,0,4.57-4.58V.64A.58.58,0,0,0,57.25,0"/></g></g><g id="Group-56"><g class="cls-4"><path id="Fill-54" class="cls-2" d="M112.95,12.43h3.19a2.23,2.23,0,0,0,1.8-.77,2.54,2.54,0,0,0,.57-1.61,2.94,2.94,0,0,0-.23-1.24,1.82,1.82,0,0,0-.68-.72,2.63,2.63,0,0,0-1.54-.41h-3.11ZM110.8,5.59h5.14a8,8,0,0,1,1.62.16,4.32,4.32,0,0,1,1.58.86A3.5,3.5,0,0,1,120.22,8a4.66,4.66,0,0,1,.44,2.09,4.52,4.52,0,0,1-1.11,3,4.14,4.14,0,0,1-3.33,1.44h-3.27v5.71H110.8Z"/></g></g></g></g></g></g></g></g></svg>
